<svg width="32" height="32" viewBox="0 0 32 32" fill="none" xmlns="http://www.w3.org/2000/svg">
<path d="M0 16C0 7.16344 7.16344 0 16 0C24.8366 0 32 7.16344 32 16C32 24.8366 24.8366 32 16 32C7.16344 32 0 24.8366 0 16Z" fill="#FFEBEF"/>
<mask id="mask0_2499_81312" style="mask-type:alpha" maskUnits="userSpaceOnUse" x="10" y="9" width="13" height="14">
<path fill-rule="evenodd" clip-rule="evenodd" d="M21.901 10.9917C22.1451 10.7477 22.1451 10.3519 21.901 10.1079C21.6569 9.86379 21.2612 9.86379 21.0171 10.1079L16.0424 15.0826L11.0677 10.1079C10.8236 9.86379 10.4279 9.86379 10.1838 10.1079C9.93971 10.3519 9.93971 10.7477 10.1838 10.9917L15.1585 15.9665L10.1838 20.9412C9.93971 21.1853 9.93971 21.581 10.1838 21.8251C10.4279 22.0692 10.8236 22.0692 11.0677 21.8251L16.0424 16.8504L21.0171 21.8251C21.2612 22.0692 21.6569 22.0692 21.901 21.8251C22.1451 21.581 22.1451 21.1853 21.901 20.9412L16.9263 15.9665L21.901 10.9917Z" fill="#101010"/>
</mask>
<g mask="url(#mask0_2499_81312)">
<rect x="6" y="6" width="20" height="20" fill="#FD5154"/>
</g>
</svg>
